<svg id="visual" viewBox="0 0 960 540" width="960" height="540" xmlns="http://www.w3.org/2000/svg" xmlns:xlink="http://www.w3.org/1999/xlink" version="1.1"><rect x="0" y="0" width="960" height="540" fill="#fff"></rect><path d="M0 399L137 342L274 317L411 375L549 383L686 316L823 403L960 337L960 541L823 541L686 541L549 541L411 541L274 541L137 541L0 541Z" fill="#9d9d9d"></path><path d="M0 406L137 406L274 431L411 368L549 376L686 415L823 357L960 359L960 541L823 541L686 541L549 541L411 541L274 541L137 541L0 541Z" fill="#aeaeaf"></path><path d="M0 459L137 443L274 395L411 420L549 422L686 425L823 401L960 441L960 541L823 541L686 541L549 541L411 541L274 541L137 541L0 541Z" fill="#c0c0c1"></path><path d="M0 482L137 452L274 444L411 469L549 479L686 442L823 453L960 468L960 541L823 541L686 541L549 541L411 541L274 541L137 541L0 541Z" fill="#d2d2d4"></path><path d="M0 509L137 480L274 503L411 515L549 478L686 510L823 480L960 473L960 541L823 541L686 541L549 541L411 541L274 541L137 541L0 541Z" fill="#e4e5e7"></path></svg>