<svg id="visual" viewBox="0 0 675 900" width="675" height="900" xmlns="http://www.w3.org/2000/svg" xmlns:xlink="http://www.w3.org/1999/xlink" version="1.1"><rect x="0" y="0" width="675" height="900" fill="#fff"></rect><path d="M0 666L96 570L193 528L289 626L386 640L482 528L579 672L675 563L675 901L579 901L482 901L386 901L289 901L193 901L96 901L0 901Z" fill="#9d9d9d"></path><path d="M0 678L96 678L193 719L289 615L386 627L482 692L579 596L675 599L675 901L579 901L482 901L386 901L289 901L193 901L96 901L0 901Z" fill="#aeaeaf"></path><path d="M0 765L96 738L193 659L289 700L386 704L482 708L579 669L675 736L675 901L579 901L482 901L386 901L289 901L193 901L96 901L0 901Z" fill="#c0c0c1"></path><path d="M0 805L96 753L193 740L289 783L386 799L482 738L579 755L675 780L675 901L579 901L482 901L386 901L289 901L193 901L96 901L0 901Z" fill="#d2d2d4"></path><path d="M0 850L96 801L193 838L289 859L386 797L482 851L579 801L675 789L675 901L579 901L482 901L386 901L289 901L193 901L96 901L0 901Z" fill="#e4e5e7"></path></svg>