<svg id="visual" viewBox="0 0 675 900" width="675" height="900" xmlns="http://www.w3.org/2000/svg" xmlns:xlink="http://www.w3.org/1999/xlink" version="1.1"><rect x="0" y="0" width="675" height="900" fill="#fff"></rect><path d="M0 339L96 263L193 308L289 286L386 244L482 246L579 245L675 313L675 0L579 0L482 0L386 0L289 0L193 0L96 0L0 0Z" fill="#9d9d9d"></path><path d="M0 214L96 294L193 279L289 306L386 181L482 300L579 288L675 288L675 0L579 0L482 0L386 0L289 0L193 0L96 0L0 0Z" fill="#aeaeaf"></path><path d="M0 147L96 210L193 225L289 238L386 213L482 204L579 191L675 154L675 0L579 0L482 0L386 0L289 0L193 0L96 0L0 0Z" fill="#c0c0c1"></path><path d="M0 120L96 94L193 145L289 166L386 174L482 121L579 171L675 126L675 0L579 0L482 0L386 0L289 0L193 0L96 0L0 0Z" fill="#d2d2d4"></path><path d="M0 71L96 60L193 99L289 98L386 82L482 81L579 52L675 72L675 0L579 0L482 0L386 0L289 0L193 0L96 0L0 0Z" fill="#e4e5e7"></path></svg>