<svg id="visual" viewBox="0 0 900 600" width="900" height="600" xmlns="http://www.w3.org/2000/svg" xmlns:xlink="http://www.w3.org/1999/xlink" version="1.1"><rect x="0" y="0" width="900" height="600" fill="#fff"></rect><path d="M0 444L129 380L257 352L386 417L514 426L643 351L771 448L900 375L900 601L771 601L643 601L514 601L386 601L257 601L129 601L0 601Z" fill="#9d9d9d"></path><path d="M0 452L129 451L257 479L386 409L514 417L643 461L771 397L900 399L900 601L771 601L643 601L514 601L386 601L257 601L129 601L0 601Z" fill="#aeaeaf"></path><path d="M0 510L129 492L257 439L386 466L514 469L643 472L771 446L900 490L900 601L771 601L643 601L514 601L386 601L257 601L129 601L0 601Z" fill="#c0c0c1"></path><path d="M0 536L129 502L257 493L386 522L514 532L643 491L771 503L900 520L900 601L771 601L643 601L514 601L386 601L257 601L129 601L0 601Z" fill="#d2d2d4"></path><path d="M0 566L129 534L257 559L386 572L514 531L643 567L771 534L900 525L900 601L771 601L643 601L514 601L386 601L257 601L129 601L0 601Z" fill="#e4e5e7"></path></svg>