<svg id="visual" viewBox="0 0 900 450" width="900" height="450" xmlns="http://www.w3.org/2000/svg" xmlns:xlink="http://www.w3.org/1999/xlink" version="1.1"><rect x="0" y="0" width="900" height="450" fill="#fff"></rect><path d="M0 136L129 114L257 134L386 164L514 166L643 128L771 129L900 138L900 0L771 0L643 0L514 0L386 0L257 0L129 0L0 0Z" fill="#9d9d9d"></path><path d="M0 135L129 127L257 100L386 148L514 150L643 153L771 115L900 136L900 0L771 0L643 0L514 0L386 0L257 0L129 0L0 0Z" fill="#aeaeaf"></path><path d="M0 73L129 90L257 115L386 72L514 92L643 107L771 101L900 102L900 0L771 0L643 0L514 0L386 0L257 0L129 0L0 0Z" fill="#c0c0c1"></path><path d="M0 45L129 57L257 58L386 62L514 58L643 58L771 49L900 42L900 0L771 0L643 0L514 0L386 0L257 0L129 0L0 0Z" fill="#d2d2d4"></path><path d="M0 48L129 25L257 51L386 45L514 25L643 23L771 50L900 44L900 0L771 0L643 0L514 0L386 0L257 0L129 0L0 0Z" fill="#e4e5e7"></path></svg>