<svg id="visual" viewBox="0 0 900 450" width="900" height="450" xmlns="http://www.w3.org/2000/svg" xmlns:xlink="http://www.w3.org/1999/xlink" version="1.1"><path d="M0 64L82 87L164 37L245 69L327 100L409 69L491 87L573 91L655 127L736 60L818 78L900 51L900 0L818 0L736 0L655 0L573 0L491 0L409 0L327 0L245 0L164 0L82 0L0 0Z" fill="#9d9d9d"></path><path d="M0 136L82 118L164 100L245 132L327 145L409 100L491 150L573 145L655 177L736 105L818 109L900 127L900 49L818 76L736 58L655 125L573 89L491 85L409 67L327 98L245 67L164 35L82 85L0 62Z" fill="#c9c9ca"></path><path d="M0 307L82 213L164 280L245 222L327 280L409 231L491 339L573 316L655 249L736 294L818 213L900 204L900 125L818 107L736 103L655 175L573 143L491 148L409 98L327 143L245 130L164 98L82 116L0 134Z" fill="#e4e5e7"></path><path d="M0 393L82 375L164 375L245 415L327 366L409 361L491 397L573 379L655 415L736 388L818 411L900 366L900 202L818 211L736 292L655 247L573 314L491 337L409 229L327 278L245 220L164 278L82 211L0 305Z" fill="#c9c9ca"></path><path d="M0 451L82 451L164 451L245 451L327 451L409 451L491 451L573 451L655 451L736 451L818 451L900 451L900 364L818 409L736 386L655 413L573 377L491 395L409 359L327 364L245 413L164 373L82 373L0 391Z" fill="#9d9d9d"></path></svg>