<svg id="visual" viewBox="0 0 900 450" width="900" height="450" xmlns="http://www.w3.org/2000/svg" xmlns:xlink="http://www.w3.org/1999/xlink" version="1.1"><g stroke-width="1" stroke-linejoin="bevel"><path d="M412 213L313 143L372 277Z" fill="#d6d6d8" stroke="#FFFFFF"></path><path d="M313 143L292 286L372 277Z" fill="#b2b2b2" stroke="#FFFFFF"></path><path d="M412 213L375 100L313 143Z" fill="#a4a4a4" stroke="#FFFFFF"></path><path d="M292 286L328 336L372 277Z" fill="#d6d6d8" stroke="#FFFFFF"></path><path d="M213 84L203 187L313 143Z" fill="#b9b9ba" stroke="#FFFFFF"></path><path d="M313 143L203 187L292 286Z" fill="#e4e5e7" stroke="#FFFFFF"></path><path d="M292 286L188 359L328 336Z" fill="#d6d6d8" stroke="#FFFFFF"></path><path d="M375 100L281 59L313 143Z" fill="#a4a4a4" stroke="#FFFFFF"></path><path d="M203 187L193 302L292 286Z" fill="#dddddf" stroke="#FFFFFF"></path><path d="M520 259L516 187L412 213Z" fill="#cecfd0" stroke="#FFFFFF"></path><path d="M412 213L516 187L375 100Z" fill="#c0c0c1" stroke="#FFFFFF"></path><path d="M520 259L412 213L372 277Z" fill="#a4a4a4" stroke="#FFFFFF"></path><path d="M281 59L213 84L313 143Z" fill="#e4e5e7" stroke="#FFFFFF"></path><path d="M533 320L520 259L372 277Z" fill="#b2b2b2" stroke="#FFFFFF"></path><path d="M274 450L416 393L328 336Z" fill="#dddddf" stroke="#FFFFFF"></path><path d="M328 336L416 393L372 277Z" fill="#ababab" stroke="#FFFFFF"></path><path d="M86 347L188 359L193 302Z" fill="#b2b2b2" stroke="#FFFFFF"></path><path d="M193 302L188 359L292 286Z" fill="#c7c7c8" stroke="#FFFFFF"></path><path d="M489 0L370 0L375 100Z" fill="#b9b9ba" stroke="#FFFFFF"></path><path d="M375 100L370 0L281 59Z" fill="#dddddf" stroke="#FFFFFF"></path><path d="M281 59L206 0L213 84Z" fill="#a4a4a4" stroke="#FFFFFF"></path><path d="M370 0L305 0L281 59Z" fill="#cecfd0" stroke="#FFFFFF"></path><path d="M416 393L533 320L372 277Z" fill="#b2b2b2" stroke="#FFFFFF"></path><path d="M621 141L574 116L516 187Z" fill="#dddddf" stroke="#FFFFFF"></path><path d="M574 116L525 71L516 187Z" fill="#dddddf" stroke="#FFFFFF"></path><path d="M516 187L525 71L375 100Z" fill="#b9b9ba" stroke="#FFFFFF"></path><path d="M188 359L274 450L328 336Z" fill="#b2b2b2" stroke="#FFFFFF"></path><path d="M203 187L101 280L193 302Z" fill="#c7c7c8" stroke="#FFFFFF"></path><path d="M188 359L172 450L274 450Z" fill="#a4a4a4" stroke="#FFFFFF"></path><path d="M85 208L101 280L203 187Z" fill="#b9b9ba" stroke="#FFFFFF"></path><path d="M305 0L206 0L281 59Z" fill="#c7c7c8" stroke="#FFFFFF"></path><path d="M90 122L85 208L203 187Z" fill="#dddddf" stroke="#FFFFFF"></path><path d="M90 122L203 187L213 84Z" fill="#d6d6d8" stroke="#FFFFFF"></path><path d="M621 141L516 187L633 261Z" fill="#d6d6d8" stroke="#FFFFFF"></path><path d="M274 450L435 450L416 393Z" fill="#c7c7c8" stroke="#FFFFFF"></path><path d="M416 393L465 450L533 320Z" fill="#ababab" stroke="#FFFFFF"></path><path d="M525 71L489 0L375 100Z" fill="#ababab" stroke="#FFFFFF"></path><path d="M583 0L489 0L525 71Z" fill="#ababab" stroke="#FFFFFF"></path><path d="M115 0L90 122L213 84Z" fill="#ababab" stroke="#FFFFFF"></path><path d="M435 450L465 450L416 393Z" fill="#e4e5e7" stroke="#FFFFFF"></path><path d="M0 308L86 347L101 280Z" fill="#dddddf" stroke="#FFFFFF"></path><path d="M101 280L86 347L193 302Z" fill="#ababab" stroke="#FFFFFF"></path><path d="M86 347L172 450L188 359Z" fill="#9d9d9d" stroke="#FFFFFF"></path><path d="M633 261L516 187L520 259Z" fill="#b2b2b2" stroke="#FFFFFF"></path><path d="M574 116L583 0L525 71Z" fill="#c0c0c1" stroke="#FFFFFF"></path><path d="M584 392L633 261L533 320Z" fill="#b2b2b2" stroke="#FFFFFF"></path><path d="M533 320L633 261L520 259Z" fill="#b9b9ba" stroke="#FFFFFF"></path><path d="M465 450L584 392L533 320Z" fill="#a4a4a4" stroke="#FFFFFF"></path><path d="M206 0L115 0L213 84Z" fill="#d6d6d8" stroke="#FFFFFF"></path><path d="M676 105L583 0L574 116Z" fill="#a4a4a4" stroke="#FFFFFF"></path><path d="M0 90L0 205L90 122Z" fill="#a4a4a4" stroke="#FFFFFF"></path><path d="M90 122L0 205L85 208Z" fill="#dddddf" stroke="#FFFFFF"></path><path d="M85 208L0 205L101 280Z" fill="#a4a4a4" stroke="#FFFFFF"></path><path d="M465 450L586 450L584 392Z" fill="#d6d6d8" stroke="#FFFFFF"></path><path d="M584 392L688 341L633 261Z" fill="#ababab" stroke="#FFFFFF"></path><path d="M0 450L87 450L86 347Z" fill="#9d9d9d" stroke="#FFFFFF"></path><path d="M86 347L87 450L172 450Z" fill="#d6d6d8" stroke="#FFFFFF"></path><path d="M0 205L0 308L101 280Z" fill="#a4a4a4" stroke="#FFFFFF"></path><path d="M713 144L676 105L621 141Z" fill="#cecfd0" stroke="#FFFFFF"></path><path d="M621 141L676 105L574 116Z" fill="#c0c0c1" stroke="#FFFFFF"></path><path d="M713 144L621 141L633 261Z" fill="#a4a4a4" stroke="#FFFFFF"></path><path d="M115 0L0 90L90 122Z" fill="#dddddf" stroke="#FFFFFF"></path><path d="M0 308L0 341L86 347Z" fill="#c0c0c1" stroke="#FFFFFF"></path><path d="M681 450L688 341L584 392Z" fill="#cecfd0" stroke="#FFFFFF"></path><path d="M738 252L713 144L633 261Z" fill="#9d9d9d" stroke="#FFFFFF"></path><path d="M676 105L713 0L583 0Z" fill="#ababab" stroke="#FFFFFF"></path><path d="M115 0L0 0L0 90Z" fill="#e4e5e7" stroke="#FFFFFF"></path><path d="M688 341L738 252L633 261Z" fill="#a4a4a4" stroke="#FFFFFF"></path><path d="M0 341L0 450L86 347Z" fill="#b2b2b2" stroke="#FFFFFF"></path><path d="M586 450L681 450L584 392Z" fill="#9d9d9d" stroke="#FFFFFF"></path><path d="M688 341L793 328L738 252Z" fill="#d6d6d8" stroke="#FFFFFF"></path><path d="M829 92L713 0L713 144Z" fill="#a4a4a4" stroke="#FFFFFF"></path><path d="M713 144L713 0L676 105Z" fill="#ababab" stroke="#FFFFFF"></path><path d="M681 450L793 328L688 341Z" fill="#a4a4a4" stroke="#FFFFFF"></path><path d="M738 252L823 184L713 144Z" fill="#b9b9ba" stroke="#FFFFFF"></path><path d="M832 256L823 184L738 252Z" fill="#b2b2b2" stroke="#FFFFFF"></path><path d="M793 328L832 256L738 252Z" fill="#d6d6d8" stroke="#FFFFFF"></path><path d="M900 190L829 92L823 184Z" fill="#d6d6d8" stroke="#FFFFFF"></path><path d="M823 184L829 92L713 144Z" fill="#e4e5e7" stroke="#FFFFFF"></path><path d="M829 92L823 0L713 0Z" fill="#ababab" stroke="#FFFFFF"></path><path d="M900 337L900 269L832 256Z" fill="#b9b9ba" stroke="#FFFFFF"></path><path d="M681 450L833 450L793 328Z" fill="#b9b9ba" stroke="#FFFFFF"></path><path d="M832 256L900 190L823 184Z" fill="#cecfd0" stroke="#FFFFFF"></path><path d="M829 92L900 51L823 0Z" fill="#ababab" stroke="#FFFFFF"></path><path d="M900 269L900 190L832 256Z" fill="#a4a4a4" stroke="#FFFFFF"></path><path d="M900 337L832 256L793 328Z" fill="#c7c7c8" stroke="#FFFFFF"></path><path d="M833 450L900 337L793 328Z" fill="#a4a4a4" stroke="#FFFFFF"></path><path d="M900 190L900 51L829 92Z" fill="#b9b9ba" stroke="#FFFFFF"></path><path d="M900 51L900 0L823 0Z" fill="#9d9d9d" stroke="#FFFFFF"></path><path d="M833 450L900 450L900 337Z" fill="#a4a4a4" stroke="#FFFFFF"></path></g></svg>