<svg id="visual" viewBox="0 0 540 960" width="540" height="960" xmlns="http://www.w3.org/2000/svg" xmlns:xlink="http://www.w3.org/1999/xlink" version="1.1"><rect x="0" y="0" width="540" height="960" fill="#fff"></rect><path d="M0 711L77 608L154 564L231 668L309 682L386 563L463 717L540 600L540 961L463 961L386 961L309 961L231 961L154 961L77 961L0 961Z" fill="#9d9d9d"></path><path d="M0 723L77 723L154 767L231 656L309 668L386 739L463 635L540 639L540 961L463 961L386 961L309 961L231 961L154 961L77 961L0 961Z" fill="#aeaeaf"></path><path d="M0 816L77 788L154 703L231 747L309 751L386 756L463 714L540 785L540 961L463 961L386 961L309 961L231 961L154 961L77 961L0 961Z" fill="#c0c0c1"></path><path d="M0 859L77 804L154 790L231 835L309 852L386 787L463 806L540 833L540 961L463 961L386 961L309 961L231 961L154 961L77 961L0 961Z" fill="#d2d2d4"></path><path d="M0 906L77 855L154 894L231 916L309 850L386 908L463 855L540 841L540 961L463 961L386 961L309 961L231 961L154 961L77 961L0 961Z" fill="#e4e5e7"></path></svg>