<svg id="visual" viewBox="0 0 600 900" width="600" height="900" xmlns="http://www.w3.org/2000/svg" xmlns:xlink="http://www.w3.org/1999/xlink" version="1.1"><rect x="0" y="0" width="600" height="900" fill="#fff"></rect><path d="M0 666L86 570L171 528L257 626L343 640L429 528L514 672L600 563L600 901L514 901L429 901L343 901L257 901L171 901L86 901L0 901Z" fill="#9d9d9d"></path><path d="M0 678L86 678L171 719L257 615L343 627L429 692L514 596L600 599L600 901L514 901L429 901L343 901L257 901L171 901L86 901L0 901Z" fill="#aeaeaf"></path><path d="M0 765L86 738L171 659L257 700L343 704L429 708L514 669L600 736L600 901L514 901L429 901L343 901L257 901L171 901L86 901L0 901Z" fill="#c0c0c1"></path><path d="M0 805L86 753L171 740L257 783L343 799L429 738L514 755L600 780L600 901L514 901L429 901L343 901L257 901L171 901L86 901L0 901Z" fill="#d2d2d4"></path><path d="M0 850L86 801L171 838L257 859L343 797L429 851L514 801L600 789L600 901L514 901L429 901L343 901L257 901L171 901L86 901L0 901Z" fill="#e4e5e7"></path></svg>