<svg id="visual" viewBox="0 0 900 900" width="900" height="900" xmlns="http://www.w3.org/2000/svg" xmlns:xlink="http://www.w3.org/1999/xlink" version="1.1"><rect x="0" y="0" width="900" height="900" fill="#fff"></rect><path d="M0 666L129 570L257 528L386 626L514 640L643 528L771 672L900 563L900 901L771 901L643 901L514 901L386 901L257 901L129 901L0 901Z" fill="#9d9d9d"></path><path d="M0 678L129 678L257 719L386 615L514 627L643 692L771 596L900 599L900 901L771 901L643 901L514 901L386 901L257 901L129 901L0 901Z" fill="#aeaeaf"></path><path d="M0 765L129 738L257 659L386 700L514 704L643 708L771 669L900 736L900 901L771 901L643 901L514 901L386 901L257 901L129 901L0 901Z" fill="#c0c0c1"></path><path d="M0 805L129 753L257 740L386 783L514 799L643 738L771 755L900 780L900 901L771 901L643 901L514 901L386 901L257 901L129 901L0 901Z" fill="#d2d2d4"></path><path d="M0 850L129 801L257 838L386 859L514 797L643 851L771 801L900 789L900 901L771 901L643 901L514 901L386 901L257 901L129 901L0 901Z" fill="#e4e5e7"></path></svg>