<svg id="visual" viewBox="0 0 900 675" width="900" height="675" xmlns="http://www.w3.org/2000/svg" xmlns:xlink="http://www.w3.org/1999/xlink" version="1.1"><rect x="0" y="0" width="900" height="675" fill="#fff"></rect><path d="M0 500L129 427L257 396L386 469L514 479L643 396L771 504L900 422L900 676L771 676L643 676L514 676L386 676L257 676L129 676L0 676Z" fill="#9d9d9d"></path><path d="M0 508L129 508L257 539L386 461L514 470L643 519L771 446L900 449L900 676L771 676L643 676L514 676L386 676L257 676L129 676L0 676Z" fill="#aeaeaf"></path><path d="M0 574L129 553L257 494L386 525L514 527L643 531L771 502L900 552L900 676L771 676L643 676L514 676L386 676L257 676L129 676L0 676Z" fill="#c0c0c1"></path><path d="M0 603L129 565L257 555L386 587L514 599L643 553L771 566L900 585L900 676L771 676L643 676L514 676L386 676L257 676L129 676L0 676Z" fill="#d2d2d4"></path><path d="M0 637L129 601L257 628L386 644L514 597L643 638L771 601L900 591L900 676L771 676L643 676L514 676L386 676L257 676L129 676L0 676Z" fill="#e4e5e7"></path></svg>