<svg id="visual" viewBox="0 0 900 450" width="900" height="450" xmlns="http://www.w3.org/2000/svg" xmlns:xlink="http://www.w3.org/1999/xlink" version="1.1"><rect x="0" y="0" width="900" height="450" fill="#fff"></rect><path d="M0 333L129 285L257 264L386 313L514 319L643 263L771 336L900 281L900 451L771 451L643 451L514 451L386 451L257 451L129 451L0 451Z" fill="#9d9d9d"></path><path d="M0 339L129 338L257 359L386 307L514 313L643 346L771 297L900 299L900 451L771 451L643 451L514 451L386 451L257 451L129 451L0 451Z" fill="#aeaeaf"></path><path d="M0 382L129 369L257 329L386 350L514 351L643 354L771 334L900 368L900 451L771 451L643 451L514 451L386 451L257 451L129 451L0 451Z" fill="#c0c0c1"></path><path d="M0 402L129 376L257 370L386 391L514 399L643 368L771 377L900 390L900 451L771 451L643 451L514 451L386 451L257 451L129 451L0 451Z" fill="#d2d2d4"></path><path d="M0 424L129 400L257 419L386 429L514 398L643 425L771 400L900 394L900 451L771 451L643 451L514 451L386 451L257 451L129 451L0 451Z" fill="#e4e5e7"></path></svg>