<svg id="visual" viewBox="0 0 450 900" width="450" height="900" xmlns="http://www.w3.org/2000/svg" xmlns:xlink="http://www.w3.org/1999/xlink" version="1.1"><rect x="0" y="0" width="450" height="900" fill="#fff"></rect><path d="M0 666L64 570L129 528L193 626L257 640L321 528L386 672L450 563L450 901L386 901L321 901L257 901L193 901L129 901L64 901L0 901Z" fill="#9d9d9d"></path><path d="M0 678L64 678L129 719L193 615L257 627L321 692L386 596L450 599L450 901L386 901L321 901L257 901L193 901L129 901L64 901L0 901Z" fill="#aeaeaf"></path><path d="M0 765L64 738L129 659L193 700L257 704L321 708L386 669L450 736L450 901L386 901L321 901L257 901L193 901L129 901L64 901L0 901Z" fill="#c0c0c1"></path><path d="M0 805L64 753L129 740L193 783L257 799L321 738L386 755L450 780L450 901L386 901L321 901L257 901L193 901L129 901L64 901L0 901Z" fill="#d2d2d4"></path><path d="M0 850L64 801L129 838L193 859L257 797L321 851L386 801L450 789L450 901L386 901L321 901L257 901L193 901L129 901L64 901L0 901Z" fill="#e4e5e7"></path></svg>