<svg id="visual" viewBox="0 0 675 900" width="675" height="900" xmlns="http://www.w3.org/2000/svg" xmlns:xlink="http://www.w3.org/1999/xlink" version="1.1"><g stroke-width="1" stroke-linejoin="bevel"><path d="M293 482L236 525L292 496Z" fill="#c7c7c8" stroke="#FFFFFF"></path><path d="M293 482L200 426L236 525Z" fill="#c7c7c8" stroke="#FFFFFF"></path><path d="M293 482L291 402L200 426Z" fill="#d6d6d8" stroke="#FFFFFF"></path><path d="M200 426L144 485L236 525Z" fill="#d6d6d8" stroke="#FFFFFF"></path><path d="M116 565L255 609L236 525Z" fill="#ababab" stroke="#FFFFFF"></path><path d="M236 525L322 592L292 496Z" fill="#cecfd0" stroke="#FFFFFF"></path><path d="M255 609L322 592L236 525Z" fill="#dddddf" stroke="#FFFFFF"></path><path d="M292 496L396 452L293 482Z" fill="#cecfd0" stroke="#FFFFFF"></path><path d="M293 482L396 452L291 402Z" fill="#9d9d9d" stroke="#FFFFFF"></path><path d="M291 402L188 368L200 426Z" fill="#cecfd0" stroke="#FFFFFF"></path><path d="M200 426L115 426L144 485Z" fill="#ababab" stroke="#FFFFFF"></path><path d="M322 592L384 548L292 496Z" fill="#c7c7c8" stroke="#FFFFFF"></path><path d="M384 548L396 452L292 496Z" fill="#c7c7c8" stroke="#FFFFFF"></path><path d="M188 368L115 426L200 426Z" fill="#b9b9ba" stroke="#FFFFFF"></path><path d="M115 426L96 468L144 485Z" fill="#c0c0c1" stroke="#FFFFFF"></path><path d="M144 485L116 565L236 525Z" fill="#d6d6d8" stroke="#FFFFFF"></path><path d="M92 561L116 565L144 485Z" fill="#ababab" stroke="#FFFFFF"></path><path d="M384 548L410 518L396 452Z" fill="#e4e5e7" stroke="#FFFFFF"></path><path d="M209 296L139 351L188 368Z" fill="#cecfd0" stroke="#FFFFFF"></path><path d="M188 368L139 351L115 426Z" fill="#9d9d9d" stroke="#FFFFFF"></path><path d="M115 426L53 374L96 468Z" fill="#cecfd0" stroke="#FFFFFF"></path><path d="M96 468L92 561L144 485Z" fill="#c0c0c1" stroke="#FFFFFF"></path><path d="M116 565L165 658L255 609Z" fill="#cecfd0" stroke="#FFFFFF"></path><path d="M438 430L412 405L396 452Z" fill="#b9b9ba" stroke="#FFFFFF"></path><path d="M396 452L412 405L291 402Z" fill="#b2b2b2" stroke="#FFFFFF"></path><path d="M291 402L209 296L188 368Z" fill="#ababab" stroke="#FFFFFF"></path><path d="M397 635L413 572L322 592Z" fill="#ababab" stroke="#FFFFFF"></path><path d="M322 592L413 572L384 548Z" fill="#c7c7c8" stroke="#FFFFFF"></path><path d="M384 548L413 572L410 518Z" fill="#a4a4a4" stroke="#FFFFFF"></path><path d="M410 518L438 430L396 452Z" fill="#ababab" stroke="#FFFFFF"></path><path d="M412 405L346 323L291 402Z" fill="#b2b2b2" stroke="#FFFFFF"></path><path d="M91 597L165 658L116 565Z" fill="#c7c7c8" stroke="#FFFFFF"></path><path d="M323 706L397 635L322 592Z" fill="#9d9d9d" stroke="#FFFFFF"></path><path d="M330 304L209 296L291 402Z" fill="#d6d6d8" stroke="#FFFFFF"></path><path d="M543 441L438 430L410 518Z" fill="#b2b2b2" stroke="#FFFFFF"></path><path d="M412 405L432 370L346 323Z" fill="#b9b9ba" stroke="#FFFFFF"></path><path d="M92 561L91 597L116 565Z" fill="#a4a4a4" stroke="#FFFFFF"></path><path d="M366 235L330 304L346 323Z" fill="#ababab" stroke="#FFFFFF"></path><path d="M346 323L330 304L291 402Z" fill="#cecfd0" stroke="#FFFFFF"></path><path d="M323 706L322 592L255 609Z" fill="#9d9d9d" stroke="#FFFFFF"></path><path d="M438 430L432 370L412 405Z" fill="#dddddf" stroke="#FFFFFF"></path><path d="M155 750L187 691L165 658Z" fill="#a4a4a4" stroke="#FFFFFF"></path><path d="M165 658L187 691L255 609Z" fill="#9d9d9d" stroke="#FFFFFF"></path><path d="M37 326L53 374L139 351Z" fill="#d6d6d8" stroke="#FFFFFF"></path><path d="M139 351L53 374L115 426Z" fill="#b9b9ba" stroke="#FFFFFF"></path><path d="M96 468L0 531L92 561Z" fill="#c7c7c8" stroke="#FFFFFF"></path><path d="M92 561L0 601L91 597Z" fill="#b9b9ba" stroke="#FFFFFF"></path><path d="M209 296L147 282L139 351Z" fill="#c0c0c1" stroke="#FFFFFF"></path><path d="M191 260L147 282L209 296Z" fill="#b9b9ba" stroke="#FFFFFF"></path><path d="M187 691L323 706L255 609Z" fill="#b9b9ba" stroke="#FFFFFF"></path><path d="M366 235L299 258L330 304Z" fill="#e4e5e7" stroke="#FFFFFF"></path><path d="M330 304L299 258L209 296Z" fill="#9d9d9d" stroke="#FFFFFF"></path><path d="M299 258L191 260L209 296Z" fill="#e4e5e7" stroke="#FFFFFF"></path><path d="M397 759L448 636L397 635Z" fill="#d6d6d8" stroke="#FFFFFF"></path><path d="M397 635L448 636L413 572Z" fill="#e4e5e7" stroke="#FFFFFF"></path><path d="M413 572L551 562L410 518Z" fill="#c7c7c8" stroke="#FFFFFF"></path><path d="M53 374L0 463L96 468Z" fill="#c7c7c8" stroke="#FFFFFF"></path><path d="M0 463L0 531L96 468Z" fill="#ababab" stroke="#FFFFFF"></path><path d="M155 750L208 740L187 691Z" fill="#dddddf" stroke="#FFFFFF"></path><path d="M43 665L165 658L91 597Z" fill="#dddddf" stroke="#FFFFFF"></path><path d="M187 691L208 740L323 706Z" fill="#c7c7c8" stroke="#FFFFFF"></path><path d="M147 282L37 326L139 351Z" fill="#ababab" stroke="#FFFFFF"></path><path d="M53 374L0 356L0 463Z" fill="#dddddf" stroke="#FFFFFF"></path><path d="M64 195L37 326L147 282Z" fill="#9d9d9d" stroke="#FFFFFF"></path><path d="M438 430L486 354L432 370Z" fill="#c7c7c8" stroke="#FFFFFF"></path><path d="M484 263L366 235L346 323Z" fill="#9d9d9d" stroke="#FFFFFF"></path><path d="M543 441L486 354L438 430Z" fill="#dddddf" stroke="#FFFFFF"></path><path d="M492 644L482 625L448 636Z" fill="#b9b9ba" stroke="#FFFFFF"></path><path d="M448 636L482 625L413 572Z" fill="#dddddf" stroke="#FFFFFF"></path><path d="M0 601L43 665L91 597Z" fill="#c0c0c1" stroke="#FFFFFF"></path><path d="M484 263L346 323L432 370Z" fill="#c7c7c8" stroke="#FFFFFF"></path><path d="M299 258L177 202L191 260Z" fill="#b2b2b2" stroke="#FFFFFF"></path><path d="M0 531L0 601L92 561Z" fill="#dddddf" stroke="#FFFFFF"></path><path d="M43 665L155 750L165 658Z" fill="#9d9d9d" stroke="#FFFFFF"></path><path d="M37 326L0 356L53 374Z" fill="#ababab" stroke="#FFFFFF"></path><path d="M208 740L320 765L323 706Z" fill="#b2b2b2" stroke="#FFFFFF"></path><path d="M323 706L397 759L397 635Z" fill="#ababab" stroke="#FFFFFF"></path><path d="M188 794L320 765L208 740Z" fill="#dddddf" stroke="#FFFFFF"></path><path d="M455 762L492 644L448 636Z" fill="#ababab" stroke="#FFFFFF"></path><path d="M551 562L543 441L410 518Z" fill="#cecfd0" stroke="#FFFFFF"></path><path d="M237 134L177 202L299 258Z" fill="#c7c7c8" stroke="#FFFFFF"></path><path d="M191 260L177 202L147 282Z" fill="#cecfd0" stroke="#FFFFFF"></path><path d="M37 326L0 319L0 356Z" fill="#d6d6d8" stroke="#FFFFFF"></path><path d="M543 586L413 572L482 625Z" fill="#c0c0c1" stroke="#FFFFFF"></path><path d="M0 246L0 319L37 326Z" fill="#dddddf" stroke="#FFFFFF"></path><path d="M0 601L0 660L43 665Z" fill="#b2b2b2" stroke="#FFFFFF"></path><path d="M43 665L90 778L155 750Z" fill="#cecfd0" stroke="#FFFFFF"></path><path d="M188 794L183 786L84 854Z" fill="#e4e5e7" stroke="#FFFFFF"></path><path d="M155 750L183 786L208 740Z" fill="#d6d6d8" stroke="#FFFFFF"></path><path d="M492 644L543 586L482 625Z" fill="#ababab" stroke="#FFFFFF"></path><path d="M543 586L551 562L413 572Z" fill="#e4e5e7" stroke="#FFFFFF"></path><path d="M320 765L397 759L323 706Z" fill="#b2b2b2" stroke="#FFFFFF"></path><path d="M492 644L585 661L543 586Z" fill="#e4e5e7" stroke="#FFFFFF"></path><path d="M455 762L397 759L407 818Z" fill="#e4e5e7" stroke="#FFFFFF"></path><path d="M90 778L183 786L155 750Z" fill="#dddddf" stroke="#FFFFFF"></path><path d="M183 786L188 794L208 740Z" fill="#c0c0c1" stroke="#FFFFFF"></path><path d="M502 276L484 263L486 354Z" fill="#b2b2b2" stroke="#FFFFFF"></path><path d="M486 354L484 263L432 370Z" fill="#c0c0c1" stroke="#FFFFFF"></path><path d="M563 362L502 276L486 354Z" fill="#e4e5e7" stroke="#FFFFFF"></path><path d="M525 227L465 233L484 263Z" fill="#c0c0c1" stroke="#FFFFFF"></path><path d="M484 263L465 233L366 235Z" fill="#ababab" stroke="#FFFFFF"></path><path d="M366 235L342 161L299 258Z" fill="#dddddf" stroke="#FFFFFF"></path><path d="M0 716L90 778L43 665Z" fill="#9d9d9d" stroke="#FFFFFF"></path><path d="M604 500L578 414L543 441Z" fill="#c7c7c8" stroke="#FFFFFF"></path><path d="M543 441L563 362L486 354Z" fill="#c0c0c1" stroke="#FFFFFF"></path><path d="M578 414L563 362L543 441Z" fill="#9d9d9d" stroke="#FFFFFF"></path><path d="M410 183L342 161L366 235Z" fill="#c0c0c1" stroke="#FFFFFF"></path><path d="M0 660L0 716L43 665Z" fill="#c0c0c1" stroke="#FFFFFF"></path><path d="M465 233L410 183L366 235Z" fill="#e4e5e7" stroke="#FFFFFF"></path><path d="M237 134L156 157L177 202Z" fill="#cecfd0" stroke="#FFFFFF"></path><path d="M177 202L64 195L147 282Z" fill="#b2b2b2" stroke="#FFFFFF"></path><path d="M407 818L397 759L320 765Z" fill="#d6d6d8" stroke="#FFFFFF"></path><path d="M397 759L455 762L448 636Z" fill="#d6d6d8" stroke="#FFFFFF"></path><path d="M156 157L64 195L177 202Z" fill="#cecfd0" stroke="#FFFFFF"></path><path d="M64 195L0 246L37 326Z" fill="#b2b2b2" stroke="#FFFFFF"></path><path d="M360 73L326 146L342 161Z" fill="#b9b9ba" stroke="#FFFFFF"></path><path d="M342 161L326 146L299 258Z" fill="#cecfd0" stroke="#FFFFFF"></path><path d="M303 900L315 832L197 900Z" fill="#cecfd0" stroke="#FFFFFF"></path><path d="M188 794L315 832L320 765Z" fill="#dddddf" stroke="#FFFFFF"></path><path d="M326 146L237 134L299 258Z" fill="#b9b9ba" stroke="#FFFFFF"></path><path d="M600 636L604 500L551 562Z" fill="#c0c0c1" stroke="#FFFFFF"></path><path d="M551 562L604 500L543 441Z" fill="#e4e5e7" stroke="#FFFFFF"></path><path d="M675 360L598 284L563 362Z" fill="#a4a4a4" stroke="#FFFFFF"></path><path d="M600 636L551 562L543 586Z" fill="#9d9d9d" stroke="#FFFFFF"></path><path d="M315 832L407 818L320 765Z" fill="#e4e5e7" stroke="#FFFFFF"></path><path d="M172 82L112 137L156 157Z" fill="#b2b2b2" stroke="#FFFFFF"></path><path d="M156 157L112 137L64 195Z" fill="#a4a4a4" stroke="#FFFFFF"></path><path d="M64 195L0 119L0 246Z" fill="#e4e5e7" stroke="#FFFFFF"></path><path d="M536 757L492 644L455 762Z" fill="#b9b9ba" stroke="#FFFFFF"></path><path d="M536 757L585 661L492 644Z" fill="#b2b2b2" stroke="#FFFFFF"></path><path d="M465 233L561 166L410 183Z" fill="#c0c0c1" stroke="#FFFFFF"></path><path d="M410 183L360 73L342 161Z" fill="#d6d6d8" stroke="#FFFFFF"></path><path d="M502 276L525 227L484 263Z" fill="#e4e5e7" stroke="#FFFFFF"></path><path d="M598 284L525 227L502 276Z" fill="#9d9d9d" stroke="#FFFFFF"></path><path d="M598 284L502 276L563 362Z" fill="#c0c0c1" stroke="#FFFFFF"></path><path d="M585 661L600 636L543 586Z" fill="#e4e5e7" stroke="#FFFFFF"></path><path d="M555 798L536 757L455 762Z" fill="#ababab" stroke="#FFFFFF"></path><path d="M675 667L675 635L600 636Z" fill="#ababab" stroke="#FFFFFF"></path><path d="M675 360L563 362L578 414Z" fill="#9d9d9d" stroke="#FFFFFF"></path><path d="M0 862L84 854L90 778Z" fill="#9d9d9d" stroke="#FFFFFF"></path><path d="M90 778L84 854L183 786Z" fill="#a4a4a4" stroke="#FFFFFF"></path><path d="M247 46L172 82L237 134Z" fill="#dddddf" stroke="#FFFFFF"></path><path d="M237 134L172 82L156 157Z" fill="#a4a4a4" stroke="#FFFFFF"></path><path d="M247 46L237 134L317 49Z" fill="#c0c0c1" stroke="#FFFFFF"></path><path d="M315 832L341 900L407 818Z" fill="#cecfd0" stroke="#FFFFFF"></path><path d="M407 818L464 856L455 762Z" fill="#dddddf" stroke="#FFFFFF"></path><path d="M197 900L315 832L188 794Z" fill="#b2b2b2" stroke="#FFFFFF"></path><path d="M163 900L197 900L188 794Z" fill="#e4e5e7" stroke="#FFFFFF"></path><path d="M84 854L163 900L188 794Z" fill="#dddddf" stroke="#FFFFFF"></path><path d="M303 900L341 900L315 832Z" fill="#9d9d9d" stroke="#FFFFFF"></path><path d="M675 516L675 480L604 500Z" fill="#b9b9ba" stroke="#FFFFFF"></path><path d="M604 500L675 480L578 414Z" fill="#9d9d9d" stroke="#FFFFFF"></path><path d="M675 635L675 516L600 636Z" fill="#b2b2b2" stroke="#FFFFFF"></path><path d="M600 636L675 516L604 500Z" fill="#c7c7c8" stroke="#FFFFFF"></path><path d="M172 82L70 101L112 137Z" fill="#ababab" stroke="#FFFFFF"></path><path d="M112 137L70 101L64 195Z" fill="#b2b2b2" stroke="#FFFFFF"></path><path d="M598 284L591 229L525 227Z" fill="#ababab" stroke="#FFFFFF"></path><path d="M475 51L360 73L410 183Z" fill="#c7c7c8" stroke="#FFFFFF"></path><path d="M675 187L591 229L598 284Z" fill="#c7c7c8" stroke="#FFFFFF"></path><path d="M436 900L464 856L407 818Z" fill="#e4e5e7" stroke="#FFFFFF"></path><path d="M561 166L465 233L525 227Z" fill="#d6d6d8" stroke="#FFFFFF"></path><path d="M464 856L555 798L455 762Z" fill="#ababab" stroke="#FFFFFF"></path><path d="M536 757L595 788L585 661Z" fill="#ababab" stroke="#FFFFFF"></path><path d="M317 49L237 134L326 146Z" fill="#a4a4a4" stroke="#FFFFFF"></path><path d="M65 0L0 83L70 101Z" fill="#ababab" stroke="#FFFFFF"></path><path d="M360 73L317 49L326 146Z" fill="#9d9d9d" stroke="#FFFFFF"></path><path d="M675 480L675 360L578 414Z" fill="#dddddf" stroke="#FFFFFF"></path><path d="M0 83L0 119L70 101Z" fill="#dddddf" stroke="#FFFFFF"></path><path d="M70 101L0 119L64 195Z" fill="#d6d6d8" stroke="#FFFFFF"></path><path d="M595 171L561 166L591 229Z" fill="#ababab" stroke="#FFFFFF"></path><path d="M591 229L561 166L525 227Z" fill="#d6d6d8" stroke="#FFFFFF"></path><path d="M339 0L258 0L317 49Z" fill="#e4e5e7" stroke="#FFFFFF"></path><path d="M675 667L600 636L585 661Z" fill="#ababab" stroke="#FFFFFF"></path><path d="M0 716L0 862L90 778Z" fill="#c0c0c1" stroke="#FFFFFF"></path><path d="M84 854L65 900L163 900Z" fill="#cecfd0" stroke="#FFFFFF"></path><path d="M341 900L436 900L407 818Z" fill="#cecfd0" stroke="#FFFFFF"></path><path d="M464 856L570 815L555 798Z" fill="#dddddf" stroke="#FFFFFF"></path><path d="M0 862L65 900L84 854Z" fill="#cecfd0" stroke="#FFFFFF"></path><path d="M675 360L675 320L598 284Z" fill="#9d9d9d" stroke="#FFFFFF"></path><path d="M570 815L595 788L555 798Z" fill="#d6d6d8" stroke="#FFFFFF"></path><path d="M555 798L595 788L536 757Z" fill="#c7c7c8" stroke="#FFFFFF"></path><path d="M542 900L570 815L464 856Z" fill="#b2b2b2" stroke="#FFFFFF"></path><path d="M675 738L675 667L585 661Z" fill="#b9b9ba" stroke="#FFFFFF"></path><path d="M675 187L595 171L591 229Z" fill="#9d9d9d" stroke="#FFFFFF"></path><path d="M561 166L475 51L410 183Z" fill="#d6d6d8" stroke="#FFFFFF"></path><path d="M127 0L70 101L172 82Z" fill="#a4a4a4" stroke="#FFFFFF"></path><path d="M0 862L0 900L65 900Z" fill="#c7c7c8" stroke="#FFFFFF"></path><path d="M339 0L317 49L340 0Z" fill="#b2b2b2" stroke="#FFFFFF"></path><path d="M317 49L258 0L247 46Z" fill="#dddddf" stroke="#FFFFFF"></path><path d="M247 46L127 0L172 82Z" fill="#cecfd0" stroke="#FFFFFF"></path><path d="M529 39L475 51L561 166Z" fill="#dddddf" stroke="#FFFFFF"></path><path d="M675 837L675 738L595 788Z" fill="#dddddf" stroke="#FFFFFF"></path><path d="M595 788L675 738L585 661Z" fill="#b2b2b2" stroke="#FFFFFF"></path><path d="M340 0L317 49L360 73Z" fill="#cecfd0" stroke="#FFFFFF"></path><path d="M475 51L340 0L360 73Z" fill="#b9b9ba" stroke="#FFFFFF"></path><path d="M258 0L127 0L247 46Z" fill="#d6d6d8" stroke="#FFFFFF"></path><path d="M436 900L542 900L464 856Z" fill="#b9b9ba" stroke="#FFFFFF"></path><path d="M570 815L675 837L595 788Z" fill="#b9b9ba" stroke="#FFFFFF"></path><path d="M595 171L595 111L561 166Z" fill="#c0c0c1" stroke="#FFFFFF"></path><path d="M675 160L595 111L595 171Z" fill="#c7c7c8" stroke="#FFFFFF"></path><path d="M675 320L675 187L598 284Z" fill="#b9b9ba" stroke="#FFFFFF"></path><path d="M127 0L65 0L70 101Z" fill="#9d9d9d" stroke="#FFFFFF"></path><path d="M621 0L529 39L595 111Z" fill="#dddddf" stroke="#FFFFFF"></path><path d="M595 111L529 39L561 166Z" fill="#d6d6d8" stroke="#FFFFFF"></path><path d="M475 51L486 0L340 0Z" fill="#d6d6d8" stroke="#FFFFFF"></path><path d="M675 187L675 160L595 171Z" fill="#e4e5e7" stroke="#FFFFFF"></path><path d="M542 900L591 900L570 815Z" fill="#a4a4a4" stroke="#FFFFFF"></path><path d="M502 0L475 51L529 39Z" fill="#c7c7c8" stroke="#FFFFFF"></path><path d="M502 0L486 0L475 51Z" fill="#ababab" stroke="#FFFFFF"></path><path d="M621 0L502 0L529 39Z" fill="#b2b2b2" stroke="#FFFFFF"></path><path d="M65 0L0 0L0 83Z" fill="#cecfd0" stroke="#FFFFFF"></path><path d="M591 900L675 837L570 815Z" fill="#dddddf" stroke="#FFFFFF"></path><path d="M675 160L675 87L595 111Z" fill="#c0c0c1" stroke="#FFFFFF"></path><path d="M591 900L675 900L675 837Z" fill="#c7c7c8" stroke="#FFFFFF"></path><path d="M675 87L621 0L595 111Z" fill="#e4e5e7" stroke="#FFFFFF"></path><path d="M675 87L675 0L621 0Z" fill="#cecfd0" stroke="#FFFFFF"></path></g></svg>