<svg id="visual" viewBox="0 0 900 450" width="900" height="450" xmlns="http://www.w3.org/2000/svg" xmlns:xlink="http://www.w3.org/1999/xlink" version="1.1"><path d="M0 109L13.7 101.5C27.3 94 54.7 79 82 79.8C109.3 80.7 136.7 97.3 163.8 102.7C191 108 218 102 245.2 104.2C272.3 106.3 299.7 116.7 327 124.2C354.3 131.7 381.7 136.3 409 123.7C436.3 111 463.7 81 491 76.5C518.3 72 545.7 93 573 99.7C600.3 106.3 627.7 98.7 654.8 104.7C682 110.7 709 130.3 736.2 125.8C763.3 121.3 790.7 92.7 818 78.3C845.3 64 872.7 64 886.3 64L900 64L900 0L886.3 0C872.7 0 845.3 0 818 0C790.7 0 763.3 0 736.2 0C709 0 682 0 654.8 0C627.7 0 600.3 0 573 0C545.7 0 518.3 0 491 0C463.7 0 436.3 0 409 0C381.7 0 354.3 0 327 0C299.7 0 272.3 0 245.2 0C218 0 191 0 163.8 0C136.7 0 109.3 0 82 0C54.7 0 27.3 0 13.7 0L0 0Z" fill="#d5d5d5"></path><path d="M0 145L13.7 138.3C27.3 131.7 54.7 118.3 82 116.8C109.3 115.3 136.7 125.7 163.8 132.3C191 139 218 142 245.2 150.3C272.3 158.7 299.7 172.3 327 179.2C354.3 186 381.7 186 409 174.7C436.3 163.3 463.7 140.7 491 137.7C518.3 134.7 545.7 151.3 573 153.7C600.3 156 627.7 144 654.8 148.5C682 153 709 174 736.2 171C763.3 168 790.7 141 818 126C845.3 111 872.7 108 886.3 106.5L900 105L900 62L886.3 62C872.7 62 845.3 62 818 76.3C790.7 90.7 763.3 119.3 736.2 123.8C709 128.3 682 108.7 654.8 102.7C627.7 96.7 600.3 104.3 573 97.7C545.7 91 518.3 70 491 74.5C463.7 79 436.3 109 409 121.7C381.7 134.3 354.3 129.7 327 122.2C299.7 114.7 272.3 104.3 245.2 102.2C218 100 191 106 163.8 100.7C136.7 95.3 109.3 78.7 82 77.8C54.7 77 27.3 92 13.7 99.5L0 107Z" fill="#d2d2d2"></path><path d="M0 177L13.7 168C27.3 159 54.7 141 82 137.2C109.3 133.3 136.7 143.7 163.8 152.7C191 161.7 218 169.3 245.2 176.8C272.3 184.3 299.7 191.7 327 196.8C354.3 202 381.7 205 409 193C436.3 181 463.7 154 491 151.8C518.3 149.7 545.7 172.3 573 178.3C600.3 184.3 627.7 173.7 654.8 176.7C682 179.7 709 196.3 736.2 191.2C763.3 186 790.7 159 818 146.2C845.3 133.3 872.7 134.7 886.3 135.3L900 136L900 103L886.3 104.5C872.7 106 845.3 109 818 124C790.7 139 763.3 166 736.2 169C709 172 682 151 654.8 146.5C627.7 142 600.3 154 573 151.7C545.7 149.3 518.3 132.7 491 135.7C463.7 138.7 436.3 161.3 409 172.7C381.7 184 354.3 184 327 177.2C299.7 170.3 272.3 156.7 245.2 148.3C218 140 191 137 163.8 130.3C136.7 123.7 109.3 113.3 82 114.8C54.7 116.3 27.3 129.7 13.7 136.3L0 143Z" fill="#cecece"></path><path d="M0 222L13.7 213.7C27.3 205.3 54.7 188.7 82 183.3C109.3 178 136.7 184 163.8 193.8C191 203.7 218 217.3 245.2 223.3C272.3 229.3 299.7 227.7 327 229.2C354.3 230.7 381.7 235.3 409 227.2C436.3 219 463.7 198 491 198.7C518.3 199.3 545.7 221.7 573 229.8C600.3 238 627.7 232 654.8 232C682 232 709 238 736.2 231.3C763.3 224.7 790.7 205.3 818 198.7C845.3 192 872.7 198 886.3 201L900 204L900 134L886.3 133.3C872.7 132.7 845.3 131.3 818 144.2C790.7 157 763.3 184 736.2 189.2C709 194.3 682 177.7 654.8 174.7C627.7 171.7 600.3 182.3 573 176.3C545.7 170.3 518.3 147.7 491 149.8C463.7 152 436.3 179 409 191C381.7 203 354.3 200 327 194.8C299.7 189.7 272.3 182.3 245.2 174.8C218 167.3 191 159.7 163.8 150.7C136.7 141.7 109.3 131.3 82 135.2C54.7 139 27.3 157 13.7 166L0 175Z" fill="#cbcbcb"></path><path d="M0 231L13.7 223.5C27.3 216 54.7 201 82 196.5C109.3 192 136.7 198 163.8 207.7C191 217.3 218 230.7 245.2 238.2C272.3 245.7 299.7 247.3 327 248.8C354.3 250.3 381.7 251.7 409 243.3C436.3 235 463.7 217 491 217.8C518.3 218.7 545.7 238.3 573 244.3C600.3 250.3 627.7 242.7 654.8 243.3C682 244 709 253 736.2 247.8C763.3 242.7 790.7 223.3 818 216.7C845.3 210 872.7 216 886.3 219L900 222L900 202L886.3 199C872.7 196 845.3 190 818 196.7C790.7 203.3 763.3 222.7 736.2 229.3C709 236 682 230 654.8 230C627.7 230 600.3 236 573 227.8C545.7 219.7 518.3 197.3 491 196.7C463.7 196 436.3 217 409 225.2C381.7 233.3 354.3 228.7 327 227.2C299.7 225.7 272.3 227.3 245.2 221.3C218 215.3 191 201.7 163.8 191.8C136.7 182 109.3 176 82 181.3C54.7 186.7 27.3 203.3 13.7 211.7L0 220Z" fill="#c7c7c7"></path><path d="M0 249L13.7 245.2C27.3 241.3 54.7 233.7 82 231.3C109.3 229 136.7 232 163.8 241C191 250 218 265 245.2 271C272.3 277 299.7 274 327 273.3C354.3 272.7 381.7 274.3 409 264.7C436.3 255 463.7 234 491 234.7C518.3 235.3 545.7 257.7 573 263.7C600.3 269.7 627.7 259.3 654.8 259.3C682 259.3 709 269.7 736.2 267.3C763.3 265 790.7 250 818 243.3C845.3 236.7 872.7 238.3 886.3 239.2L900 240L900 220L886.3 217C872.7 214 845.3 208 818 214.7C790.7 221.3 763.3 240.7 736.2 245.8C709 251 682 242 654.8 241.3C627.7 240.7 600.3 248.3 573 242.3C545.7 236.3 518.3 216.7 491 215.8C463.7 215 436.3 233 409 241.3C381.7 249.7 354.3 248.3 327 246.8C299.7 245.3 272.3 243.7 245.2 236.2C218 228.7 191 215.3 163.8 205.7C136.7 196 109.3 190 82 194.5C54.7 199 27.3 214 13.7 221.5L0 229Z" fill="#c4c4c4"></path><path d="M0 267L13.7 267C27.3 267 54.7 267 82 268.5C109.3 270 136.7 273 163.8 282C191 291 218 306 245.2 309C272.3 312 299.7 303 327 299.2C354.3 295.3 381.7 296.7 409 286.2C436.3 275.7 463.7 253.3 491 253.3C518.3 253.3 545.7 275.7 573 283.2C600.3 290.7 627.7 283.3 654.8 287.8C682 292.3 709 308.7 736.2 304.8C763.3 301 790.7 277 818 268C845.3 259 872.7 265 886.3 268L900 271L900 238L886.3 237.2C872.7 236.3 845.3 234.7 818 241.3C790.7 248 763.3 263 736.2 265.3C709 267.7 682 257.3 654.8 257.3C627.7 257.3 600.3 267.7 573 261.7C545.7 255.7 518.3 233.3 491 232.7C463.7 232 436.3 253 409 262.7C381.7 272.3 354.3 270.7 327 271.3C299.7 272 272.3 275 245.2 269C218 263 191 248 163.8 239C136.7 230 109.3 227 82 229.3C54.7 231.7 27.3 239.3 13.7 243.2L0 247Z" fill="#bfbfbf"></path><path d="M0 366L13.7 368.2C27.3 370.3 54.7 374.7 82 376.2C109.3 377.7 136.7 376.3 163.8 371.2C191 366 218 357 245.2 352.5C272.3 348 299.7 348 327 350.2C354.3 352.3 381.7 356.7 409 358.2C436.3 359.7 463.7 358.3 491 360.7C518.3 363 545.7 369 573 369.7C600.3 370.3 627.7 365.7 654.8 368.7C682 371.7 709 382.3 736.2 379.3C763.3 376.3 790.7 359.7 818 355.8C845.3 352 872.7 361 886.3 365.5L900 370L900 269L886.3 266C872.7 263 845.3 257 818 266C790.7 275 763.3 299 736.2 302.8C709 306.7 682 290.3 654.8 285.8C627.7 281.3 600.3 288.7 573 281.2C545.7 273.7 518.3 251.3 491 251.3C463.7 251.3 436.3 273.7 409 284.2C381.7 294.7 354.3 293.3 327 297.2C299.7 301 272.3 310 245.2 307C218 304 191 289 163.8 280C136.7 271 109.3 268 82 266.5C54.7 265 27.3 265 13.7 265L0 265Z" fill="#b9b9b9"></path><path d="M0 388L13.7 389.5C27.3 391 54.7 394 82 394C109.3 394 136.7 391 163.8 385C191 379 218 370 245.2 367.8C272.3 365.7 299.7 370.3 327 372.7C354.3 375 381.7 375 409 375C436.3 375 463.7 375 491 376.5C518.3 378 545.7 381 573 381C600.3 381 627.7 378 654.8 382.5C682 387 709 399 736.2 396.7C763.3 394.3 790.7 377.7 818 373.8C845.3 370 872.7 379 886.3 383.5L900 388L900 368L886.3 363.5C872.7 359 845.3 350 818 353.8C790.7 357.7 763.3 374.3 736.2 377.3C709 380.3 682 369.7 654.8 366.7C627.7 363.7 600.3 368.3 573 367.7C545.7 367 518.3 361 491 358.7C463.7 356.3 436.3 357.7 409 356.2C381.7 354.7 354.3 350.3 327 348.2C299.7 346 272.3 346 245.2 350.5C218 355 191 364 163.8 369.2C136.7 374.3 109.3 375.7 82 374.2C54.7 372.7 27.3 368.3 13.7 366.2L0 364Z" fill="#b2b2b2"></path><path d="M0 406L13.7 409C27.3 412 54.7 418 82 416.5C109.3 415 136.7 406 163.8 400C191 394 218 391 245.2 390.3C272.3 389.7 299.7 391.3 327 392.8C354.3 394.3 381.7 395.7 409 395.7C436.3 395.7 463.7 394.3 491 396.7C518.3 399 545.7 405 573 406.5C600.3 408 627.7 405 654.8 407.2C682 409.3 709 416.7 736.2 415.2C763.3 413.7 790.7 403.3 818 398.8C845.3 394.3 872.7 395.7 886.3 396.3L900 397L900 386L886.3 381.5C872.7 377 845.3 368 818 371.8C790.7 375.7 763.3 392.3 736.2 394.7C709 397 682 385 654.8 380.5C627.7 376 600.3 379 573 379C545.7 379 518.3 376 491 374.5C463.7 373 436.3 373 409 373C381.7 373 354.3 373 327 370.7C299.7 368.3 272.3 363.7 245.2 365.8C218 368 191 377 163.8 383C136.7 389 109.3 392 82 392C54.7 392 27.3 389 13.7 387.5L0 386Z" fill="#acacac"></path><path d="M0 424L13.7 425.5C27.3 427 54.7 430 82 428.5C109.3 427 136.7 421 163.8 417.3C191 413.7 218 412.3 245.2 413.2C272.3 414 299.7 417 327 418.5C354.3 420 381.7 420 409 419.2C436.3 418.3 463.7 416.7 491 416.7C518.3 416.7 545.7 418.3 573 419.8C600.3 421.3 627.7 422.7 654.8 424.8C682 427 709 430 736.2 426.3C763.3 422.7 790.7 412.3 818 408.7C845.3 405 872.7 408 886.3 409.5L900 411L900 395L886.3 394.3C872.7 393.7 845.3 392.3 818 396.8C790.7 401.3 763.3 411.7 736.2 413.2C709 414.7 682 407.3 654.8 405.2C627.7 403 600.3 406 573 404.5C545.7 403 518.3 397 491 394.7C463.7 392.3 436.3 393.7 409 393.7C381.7 393.7 354.3 392.3 327 390.8C299.7 389.3 272.3 387.7 245.2 388.3C218 389 191 392 163.8 398C136.7 404 109.3 413 82 414.5C54.7 416 27.3 410 13.7 407L0 404Z" fill="#a6a6a6"></path><path d="M0 451L13.7 451C27.3 451 54.7 451 82 451C109.3 451 136.7 451 163.8 451C191 451 218 451 245.2 451C272.3 451 299.7 451 327 451C354.3 451 381.7 451 409 451C436.3 451 463.7 451 491 451C518.3 451 545.7 451 573 451C600.3 451 627.7 451 654.8 451C682 451 709 451 736.2 451C763.3 451 790.7 451 818 451C845.3 451 872.7 451 886.3 451L900 451L900 409L886.3 407.5C872.7 406 845.3 403 818 406.7C790.7 410.3 763.3 420.7 736.2 424.3C709 428 682 425 654.8 422.8C627.7 420.7 600.3 419.3 573 417.8C545.7 416.3 518.3 414.7 491 414.7C463.7 414.7 436.3 416.3 409 417.2C381.7 418 354.3 418 327 416.5C299.7 415 272.3 412 245.2 411.2C218 410.3 191 411.7 163.8 415.3C136.7 419 109.3 425 82 426.5C54.7 428 27.3 425 13.7 423.5L0 422Z" fill="#a0a0a0"></path></svg>